<svg xmlns="http://www.w3.org/2000/svg" viewBox="0 0 413.32 258.17"><defs><style>.cls-1{fill:#1c1b20;}.cls-2{fill:#fdfdfd;}.cls-3{fill:#1d1c21;}</style></defs><g id="Layer_2" data-name="Layer 2"><g id="Layer_1-2" data-name="Layer 1"><path class="cls-1" d="M114.51,89.71V85.84q0-34.46,0-68.93c0-6.5-2.46-11.79-8.42-14.88C95.72-3.34,80.83,2,81,17c.13,17,0,33.91.07,50.86,0,2.24-.47,2.65-2.68,2.16a64.31,64.31,0,0,0-25-.31c-34.81,6-59,40.69-52.24,75,9.6,48.5,66.91,69.21,105.4,38.07,1.77-1.43,3.46-3,5.52-4.73v61.52c0,4.28.45,8.43,3.11,12.05,4.12,5.58,12.17,8,19.3,5.7A15.64,15.64,0,0,0,145.58,242q.07-22,0-44.08c0-2.22.44-2.6,2.62-2.1a65.21,65.21,0,0,0,74.68-38.2c.41-1,.19-2.39,2.34-2.47,2.31-.08,2.78,1,3.46,2.58,10.53,24.81,34,39.9,61.84,39.74,25.1-.13,48.79-16.4,58.69-40.27.29-.71.26-1.68,1.27-2.09.41.39.83.77,1.22,1.16q16.39,16.17,32.78,32.33c7.12,7,16.94,6.95,23.87-.08,6.78-6.89,6.65-16.33-.39-23.33q-13.62-13.53-27.32-27c-4.36-4.31-4.37-4.3-.13-8.54,1.4-1.4,2.79-2.8,4.2-4.19,7.83-7.75,15.7-15.46,23.48-23.26,5.37-5.37,6.56-12.08,3.53-18.32-4.19-8.62-16.79-15.31-27.52-4.69q-11.75,11.63-23.43,23.32c-2,2-3.89,4.22-5.84,6.33l-.94-.54V105q0-43.08,0-86.17a27.59,27.59,0,0,0-.56-6.73C351.3,3.85,343.8-.88,334.55.21a15.76,15.76,0,0,0-14.12,16c-.05,19.11,0,38.23,0,57.35,0,1-.09,1.93-.15,3.18a64.22,64.22,0,0,0-28-8,65.11,65.11,0,0,0-63.8,40.16c-.58,1.38-1,2.24-2.91,2.21s-2.09-1-2.59-2.21c-14.19-34.63-55.42-50.18-89-33.63A67.36,67.36,0,0,0,114.51,89.71Z"/><path class="cls-2" d="M114.51,89.71a67.36,67.36,0,0,1,19.42-14.43c33.59-16.55,74.82-1,89,33.63.5,1.21.75,2.18,2.59,2.21s2.33-.83,2.91-2.21a65.11,65.11,0,0,1,63.8-40.16,64.22,64.22,0,0,1,28,8c.06-1.25.15-2.22.15-3.18,0-19.12,0-38.24,0-57.35a15.76,15.76,0,0,1,14.12-16c9.25-1.09,16.75,3.64,18.83,11.93a27.59,27.59,0,0,1,.56,6.73Q354,62,354,105v3.23l.94.54c1.95-2.11,3.82-4.3,5.84-6.33q11.67-11.7,23.43-23.32c10.73-10.62,23.33-3.93,27.52,4.69,3,6.24,1.84,13-3.53,18.32-7.78,7.8-15.65,15.51-23.48,23.26-1.41,1.39-2.8,2.79-4.2,4.19-4.24,4.24-4.23,4.23.13,8.54q13.68,13.5,27.32,27c7,7,7.17,16.44.39,23.33-6.93,7-16.75,7.09-23.87.08Q368,172.44,351.66,156.25c-.39-.39-.81-.77-1.22-1.16-1,.41-1,1.38-1.27,2.09-9.9,23.87-33.59,40.14-58.69,40.27-27.81.16-51.31-14.93-61.84-39.74-.68-1.6-1.15-2.66-3.46-2.58-2.15.08-1.93,1.5-2.34,2.47a65.21,65.21,0,0,1-74.68,38.2c-2.18-.5-2.63-.12-2.62,2.1q.15,22,0,44.08a15.64,15.64,0,0,1-11.11,15.33c-7.13,2.29-15.18-.12-19.3-5.7-2.66-3.62-3.11-7.77-3.11-12.05V178c-2.06,1.77-3.75,3.3-5.52,4.73C68.05,213.91,10.74,193.2,1.14,144.7c-6.78-34.28,17.43-69,52.24-75a64.31,64.31,0,0,1,25,.31c2.21.49,2.7.08,2.68-2.16C80.94,50.93,81.08,34,81,17,80.83,2,95.72-3.34,106.08,2c6,3.09,8.41,8.38,8.42,14.88q0,34.47,0,68.93ZM65.23,101.86a31.3,31.3,0,0,0-31.7,31.05c-.21,17.21,14.16,31.5,31.64,31.49a31.27,31.27,0,1,0,.06-62.54Zm255.18,31.29a31.28,31.28,0,0,0-31.17-31.29c-17.9,0-32.1,13.61-32.12,30.88a31.65,31.65,0,0,0,63.29.41ZM162.78,101.86c-17.68,0-31.75,13.67-31.79,30.89a31.66,31.66,0,1,0,31.79-30.89ZM215.29,128c-.85,0-1.7,0-2.54,0-3.42,0-5.46,1.9-5.55,5s2,5.25,5.47,5.45c2.5.14,5.91-1.11,7.24.52s.37,4.83.48,7.35a5.31,5.31,0,0,0,10.62,0c.11-2.52-.83-5.9.45-7.35,1.48-1.67,4.93-.37,7.52-.54,3.32-.21,5.2-2.18,5.14-5.42-.06-3.07-2-5-5.2-5-2.52-.06-5.81.85-7.36-.4s-.35-4.75-.53-7.24c0-.19,0-.38,0-.57a5.11,5.11,0,0,0-5.47-4.88,5,5,0,0,0-5.15,4.89c-.07,1,0,2.07,0,3.1C220.38,128,220.38,128,215.29,128Z"/><path class="cls-3" d="M320.41,133.15a31.65,31.65,0,0,1-63.29-.41"/><path class="cls-3" d="M215.29,128c5.09,0,5.09,0,5.09-5.1,0-1-.06-2.07,0-3.1a5,5,0,0,1,5.15-4.89,5.11,5.11,0,0,1,5.47,4.88c0,.19,0,.38,0,.57.18,2.49-1.11,5.92.53,7.24s4.84.34,7.36.4c3.2.09,5.14,2,5.2,5,.06,3.24-1.82,5.21-5.14,5.42-2.59.17-6-1.13-7.52.54-1.28,1.45-.34,4.83-.45,7.35a5.31,5.31,0,0,1-10.62,0c-.11-2.52.78-5.8-.48-7.35s-4.74-.38-7.24-.52c-3.5-.2-5.57-2.23-5.47-5.45s2.13-5,5.55-5C213.59,127.94,214.44,128,215.29,128Z"/></g></g></svg>